<?xml version="1.0" encoding="UTF-8"?>
<svg id="simpleshow_original_hand" xmlns="http://www.w3.org/2000/svg" version="1.1" viewBox="0 0 1024 1024">
  <!-- Generator: Adobe Illustrator 29.5.1, SVG Export Plug-In . SVG Version: 2.1.0 Build 141)  -->
  <defs>
    <style>
      .st0 {
        display: none;
        fill: #f90;
      }

      .st0, .st1 {
        fill-rule: evenodd;
      }

      .st1 {
        fill: #fff;
      }
    </style>
  </defs>
  <path class="st0" d="M1024,318.9c0-12.2,0-24.3-.1-36.5-.1-10.2-.2-20.5-.5-30.7-.6-22.3-1.9-44.8-5.9-66.9-4-22.4-10.6-43.2-21-63.5-10.2-20-23.5-38.3-39.3-54.1-15.9-15.9-34.2-29.1-54.2-39.3-20.4-10.4-41.2-16.9-63.6-20.9-22.1-4-44.6-5.3-66.9-5.9-10.2-.3-20.5-.4-30.7-.5-12.2-.1-24.3-.1-36.5-.1L564.2,0h-105.6l-138.8.5c-12.2,0-24.4,0-36.6.1-10.2,0-20.5.2-30.7.4-22.4.6-44.9,1.9-67,5.9-22.4,4-43.3,10.6-63.7,20.9-20,10.2-38.4,23.5-54.3,39.3-15.9,15.9-29.2,34.2-39.4,54.2-10.4,20.3-17,41.2-21,63.6-4,22.1-5.3,44.5-5.9,66.8-.3,10.2-.4,20.5-.5,30.7C.6,294.6,0,309.7,0,321.9v243.6l.6,139.7c0,12.2,0,24.3.1,36.5.1,10.3.2,20.5.5,30.8.6,22.3,1.9,44.9,5.9,67,4,22.4,10.6,43.3,21,63.6,10.2,20,23.5,38.3,39.4,54.2s34.2,29.2,54.3,39.4c20.4,10.4,41.3,16.9,63.7,21,22.1,4,44.7,5.3,67,5.9,10.3.3,20.5.4,30.8.5,12.2.1,24.4.1,36.6.1h385.6c12.2,0,24.3,0,36.5-.1,10.2-.1,20.5-.2,30.7-.5,22.3-.6,44.8-1.9,66.9-5.9,22.4-4,43.2-10.6,63.6-21,20-10.2,38.3-23.5,54.2-39.4s29.2-34.2,39.3-54.2c10.4-20.4,16.9-41.2,21-63.7,4-22.1,5.3-44.6,5.9-66.9.3-10.3.4-20.5.5-30.8.1-12.2.1-24.3.1-36.5v-246.6c-.2-1.9-.2-139.7-.2-139.7h0Z"/>
  <g id="logo_overlay">
    <path id="logo_background" d="M817.8,462.7c-.3-15.8-1-31.6-1.7-47.5-1.1-25.4-3.5-50.6-6.8-75.8-3.4-26-8.1-51.8-14.9-77.2-7.7-29-18.1-57-33.1-83.2-25.4-44.3-61.8-75.6-109.9-93-28-10.1-56.9-15.2-86.5-17.4-20.2-1.5-40.4-2.2-60.7-1.2-19.6.9-38.9,3.1-58.1,7.1-30.1,6.3-58.5,16.9-84.9,33-35.8,21.8-63.8,51.4-85.8,86.9-18,29.1-30.9,60.3-40.7,93-11.1,37.1-17.9,75.1-22.1,113.5-2.8,25.1-4.6,50.3-5,75.5-.5,26.1-.4,52.2,0,78.3.4,26.5,1.5,53,3.9,79.5,1.2,13.5,2.1,27,3.8,40.4,2.4,18.4,5.1,36.7,8.4,54.9,5.1,28.4,12.5,56.2,23.2,83,4.4,11,9.1,22,15.2,32.2.1.2.2.4.4.7,5.2,7.7,10.7,15.1,16.7,22.2,30.4,36.2,68.3,61.5,112.9,76.8,1.3.4,3.3,1.2,4.6,1.5h0c12.5,2.3,24.9,4.9,37.4,6.7,18.4,2.7,36.9,3.5,55.4,4.1,20.1.6,40.2,0,60.2-2,22.8-2.3,45.1-6.7,66.8-14,42-13.9,77.6-37.4,106.6-70.9,21.4-24.8,37.4-52.7,50-82.8,16.5-39.4,26.5-80.6,33.3-122.6,4.4-27.5,7.4-55.1,9.1-82.8,1.3-20.3,2-40.7,2.4-61.1.5-19.3.2-38.6-.1-57.8h0Z"/>
    <path id="hand_only" class="st1" d="M493.6,786.6c23.1-11.7,41.5-23.1,63.5-34.2,4.4-2.3,8.6-4.7,12.7-7.2,17.2-10.6,36.1-21.4,49.8-34.2,12.6-11.7,20.1-25.8,30.5-36.8,10.3-10.9,22.2-17.3,35.5-26.4,7.2-4.8,13-11.7,19.9-17,18.7-14.5,47.2-23.7,58.9-48.4-4.4-6.5-16.2-14.8-24.8-18-31.5-11.6-64.8,7.1-84.7,23.2-3.1,2.6-47.2,42.8-71.2,42.9-1.9-2.1-3.2-4.4-4.1-6.9-.8-2.5-1.4-5.2-1.5-8,1.5-8.8,2.9-17.7,4.4-26.6.4-3,.9-5.9,1.4-8.9.7-10.7,2.4-21.3,4.7-31.7.6-2.6,1.2-5.1,1.9-7.7,2.5-9.6,5.6-19,8.9-28.3,1.2-3.1,2.3-6.2,3.5-9.2,6.3-19.2,14.4-37.7,22.6-56.3,1.1-2.3,2.1-4.6,3.1-6.9,12.7-22.9,20.2-49,29.2-73.2.9-2.4,1.9-4.7,2.9-7.1,7.1-16.4,14.9-32.2,18.2-50.2,3.4-16.6-6.4-34.1-22.9-35.8-3.3-.6-6.4-.5-9.3.3-11.3,3.1-18.8,16.2-24.6,30.6-1.7,4.3-3.3,8.8-4.7,13.1-5.8,15.7-12.3,31.2-18.7,46.6-1.1,2.6-2.2,5.1-3.3,7.7-8.9,25.4-18.9,50.8-28.1,76.3-1,2.4-2.1,4.8-3.2,7.2-3.4,7.1-7.6,13.7-13.2,19.3-1.5,1.8-2.9,3.6-4.4,5.4-3.5,1.6-6.3,2.2-8.5.2-4.3-6.3-5.2-12.4-4.5-18.4.3-2,.7-4,1.2-6,2.7-9.8,6.6-19.5,9.9-29.3.7-2,1.3-4,1.9-5.9,2.4-9.8,5.5-21.1,8.4-31.4.5-1.9,1.1-3.9,1.5-5.8,2.6-9.6,4.9-19.2,6.9-28.4.5-1.8,1-3.5,1.5-5.2,2-15.8,5.3-31.1,9.5-46,.5-1.9,1.1-3.7,1.6-5.6,3-17.3,10.1-32.8,13.9-50.2.1-2.3-.1-4.6-.6-6.8s-1.4-4.4-2.5-6.5c-6.2-9.8-19.1-16.8-30.4-15.8-2.8.3-5.5,1-7.9,2.4-24.4,21-18.4,56.3-30.5,84-.9,2.9-1.7,5.8-2.7,8.8-.9,2.9-1.8,5.9-2.8,8.9-.6,1.8-1.4,3.6-2.2,5.4-1.1,3.8-2.2,7.7-3.2,11.5-1.3,3.9-2.4,7.9-3.5,11.8-7.1,22.1-10.7,45.1-15.9,67.5-.5,2.3-1.1,4.5-1.6,6.7-4.5,16.7-5.6,27.9-14,43.1-1.1,1.5-7.5,2.5-8.5-2.1-2.7-13-1.5-34.3-.3-46.6.2-2.2.5-4.3.8-6.5,3.5-23.8,11.1-47.5,11.4-71.4.5-3.9,1-7.9,1.4-11.8.7-3.5,1.3-7,1.9-10.4.7-3.5,1.5-7,2.1-10.5.7-3.5,1.5-7,2.2-10.6.6-2.5,1.2-5.1,1.9-7.7.6-2.6,1.2-5.3,1.7-8,1.4-9.7,3.4-21.3-.8-30.8-.9-2.3-2.2-4.4-3.8-6.4-1.6-2-3.6-3.9-6-5.6-12.3-8.9-28-5.3-36.9,6.9-12.3,19.3-6.4,41.2-10.9,62.3-.7,4.6-1.6,9.1-2.5,13.8-.5,2.3-1.1,4.6-1.5,6.9-.6,2.3-1.1,4.6-1.7,6.9-.9,6-2.1,12.1-3.4,18.1-.3,2.1-.8,4.1-1.2,6.1-1.8,23.2-8.3,45.6-11.5,68.3-.3,2.1-.4,4.3-.5,6.4-.8,10.8-2.1,21.5-5.7,32-.5,1.5-1.2,2.8-1.8,3.9-2.8,4.4-6.9,5.7-13.3,1.9-2.6-1.7-4.7-4.1-6.4-7.1-1.7-2.9-3-6.4-3.9-10.3-1.8-18.8-1.6-37.7-1.1-56.6.2-3.7.3-7.6.5-11.3.9-21.1,8.6-43.1,2.7-64.9-3.3-11.7-18.1-21.3-28.7-12.3-22.2,16.5-20.1,46.7-23.3,73-.2,4-.2,8.1-.2,12.2-.2,20.3,0,40.5-2.6,60.5,0,3.6,0,7.3.1,10.9.2,7.3.7,14.6,1.5,21.8.3,3.7.6,7.4.9,11.2,1.2,15.5,1.6,31.2-1.2,49-.6,3.5-1.3,7.2-2.2,10.9-6.9,30.1-15.1,58.6-15.9,89.4.4,27,1.1,52.8-2.1,78.5-.6,4.4-1.2,8.8-1.9,13.2-2.9,17.6-7.6,34.9-14.6,51.4-1.6,3.7-3.2,7.2-4.9,10.9-3.3,7.1-6.8,14.2-10.4,21.3-3.3,6.5-6.5,12.9-9.8,19.4,5.2,7.7,10.7,15.1,16.7,22.2,30.4,36.2,68.3,61.5,112.9,76.8.6.2,1.3.4,2,.7,15.7-36.5,40.7-92.3,49.8-108.2,2.2-3.2,28.3-39.1,50.6-50.3h0Z"/>
  </g>
</svg>